<svg xmlns="http://www.w3.org/2000/svg" xmlns:xlink="http://www.w3.org/1999/xlink" version="1.1" width="256" height="256" viewBox="0 0 256 256" xml:space="preserve">

<defs>
</defs>
<g style="stroke: none; stroke-width: 0; stroke-dasharray: none; stroke-linecap: butt; stroke-linejoin: miter; stroke-miterlimit: 10; fill: none; fill-rule: nonzero; opacity: 1;" transform="translate(1.4065934065934016 1.4065934065934016) scale(2.81 2.81)" >
	<path d="M 45 86.291 c -0.459 0 -0.919 -0.105 -1.342 -0.316 c -31.399 -15.7 -43.131 -38.431 -43.64 -54.467 C -0.325 20.677 4.171 11.475 12.045 6.892 C 20.917 1.73 32.568 2.828 45 9.955 C 57.432 2.828 69.085 1.73 77.955 6.892 c 7.874 4.583 12.369 13.785 12.026 24.615 c -0.509 16.037 -12.24 38.768 -43.64 54.468 C 45.919 86.186 45.459 86.291 45 86.291 z M 24.426 9.686 c -3.46 0 -6.615 0.793 -9.363 2.393 c -6.026 3.507 -9.324 10.52 -9.047 19.239 C 6.462 45.402 16.968 65.453 45 79.926 c 28.032 -14.473 38.537 -34.523 38.984 -48.609 c 0.276 -8.719 -3.021 -15.732 -9.048 -19.239 c -7.25 -4.219 -17.325 -2.825 -28.373 3.924 c -0.959 0.587 -2.167 0.587 -3.127 0 C 36.577 11.812 30.092 9.686 24.426 9.686 z" style="stroke: none; stroke-width: 1; stroke-dasharray: none; stroke-linecap: butt; stroke-linejoin: miter; stroke-miterlimit: 10; fill: rgb(0,0,0); fill-rule: nonzero; opacity: 1;" transform=" matrix(1 0 0 1 0 0) " stroke-linecap="round" />
	<path d="M 15.496 39.907 c -1.282 0 -2.47 -0.829 -2.866 -2.119 c -2.045 -6.646 -0.725 -13.938 3.364 -18.575 c 3.052 -3.463 7.282 -5.016 11.599 -4.265 c 1.632 0.285 2.725 1.838 2.44 3.471 c -0.285 1.632 -1.839 2.725 -3.471 2.44 c -2.877 -0.5 -4.89 0.985 -6.067 2.321 c -2.739 3.106 -3.575 8.147 -2.13 12.843 c 0.487 1.584 -0.401 3.263 -1.985 3.75 C 16.085 39.864 15.788 39.907 15.496 39.907 z" style="stroke: none; stroke-width: 1; stroke-dasharray: none; stroke-linecap: butt; stroke-linejoin: miter; stroke-miterlimit: 10; fill: rgb(0,0,0); fill-rule: nonzero; opacity: 1;" transform=" matrix(1 0 0 1 0 0) " stroke-linecap="round" />
</g>
</svg>