<svg xmlns="http://www.w3.org/2000/svg" xmlns:xlink="http://www.w3.org/1999/xlink" version="1.1" width="256" height="256" viewBox="0 0 256 256" xml:space="preserve">

<defs>
</defs>
<g style="stroke: none; stroke-width: 0; stroke-dasharray: none; stroke-linecap: butt; stroke-linejoin: miter; stroke-miterlimit: 10; fill: none; fill-rule: nonzero; opacity: 1;" transform="translate(1.4065934065934016 1.4065934065934016) scale(2.81 2.81)" >
	<path d="M 77.955 6.892 C 69.085 1.73 57.432 2.828 45 9.955 C 32.568 2.828 20.917 1.73 12.045 6.892 C 4.171 11.475 -0.325 20.677 0.019 31.507 c 0.509 16.037 12.24 38.767 43.64 54.467 c 0.422 0.211 0.882 0.316 1.342 0.316 s 0.919 -0.105 1.342 -0.316 c 31.399 -15.7 43.131 -38.431 43.64 -54.468 C 90.324 20.677 85.829 11.475 77.955 6.892 z M 30.033 18.419 c -0.285 1.632 -1.839 2.725 -3.471 2.44 c -2.877 -0.5 -4.89 0.985 -6.067 2.321 c -2.739 3.106 -3.575 8.147 -2.13 12.843 c 0.487 1.584 -0.401 3.263 -1.985 3.75 c -0.294 0.091 -0.591 0.134 -0.883 0.134 c -1.282 0 -2.47 -0.829 -2.866 -2.119 c -2.045 -6.646 -0.725 -13.938 3.364 -18.575 c 3.052 -3.463 7.282 -5.016 11.599 -4.265 C 29.225 15.233 30.317 16.787 30.033 18.419 z" style="stroke: none; stroke-width: 1; stroke-dasharray: none; stroke-linecap: butt; stroke-linejoin: miter; stroke-miterlimit: 10; fill: rgb(0,0,0); fill-rule: nonzero; opacity: 1;" transform=" matrix(1 0 0 1 0 0) " stroke-linecap="round" />
</g>
</svg>